<svg version="1.1" xmlns="http://www.w3.org/2000/svg" xmlns:xlink="http://www.w3.org/1999/xlink" width="216" height="62.503" viewBox="0 0 216 62.503">

	<path fill="#676767" 
		d="M129.691,61.012v-1.828h-0.051c-0.646,0.975-2.146,2.147-4.498,2.147c-3.983,0-5.666-3.519-5.666-7.125	c0-3.534,1.863-6.635,5.691-6.635c2.301,0,3.619,0.894,4.369,2.096h0.052V42h2.419v19.012H129.691z M125.686,49.512	c-2.637,0-3.67,2.483-3.619,4.888c-0.051,2.068,1.035,4.99,3.646,4.99c2.741,0,3.879-2.715,3.879-4.912	C129.59,52.021,128.322,49.512,125.686,49.512z M115.68,59.339h-0.052c-0.567,0.792-1.858,1.992-4.082,1.992	c-2.844,0-4.838-1.226-4.838-4.106c0-3.297,3.623-4.322,6.13-4.322c0.956,0,1.627,0,2.583,0.051c0-2.262-0.825-3.44-3.256-3.44	c-1.369,0-2.843,0.523-3.826,1.361l-0.129-2.076c1.218-0.716,2.663-1.226,4.345-1.226c3.77,0,5.453,1.838,5.453,5.422v8.018h-2.328	V59.339z M115.421,54.75c-0.517,0-1.032-0.053-1.55-0.053c-1.316,0-4.573,0.207-4.573,2.541c0,1.4,1.345,2.152,2.454,2.152	c2.402,0,3.669-1.504,3.669-3.482V54.75z M104.053,61.331c-2.508,0-4.052-1.175-4.052-3.8v-7.7h-2.978V47.89h2.978v-3.036	l2.42-0.771v3.807h3.494v1.941h-3.494v7.208c0,1.523,0.933,2.352,2.045,2.352c0.75,0,1.294-0.232,1.656-0.466v2.05	C105.578,61.127,104.828,61.331,104.053,61.331z M92.059,61.331c-1.24,0-2.509-0.128-3.621-0.716l0.129-2.155	c0.959,0.62,2.33,0.931,3.027,0.931c1.109,0,2.479-0.466,2.479-1.888c0-2.405-5.713-2.198-5.713-5.896	c0-2.734,2.045-4.037,4.654-4.037c1.137,0,2.068,0.229,3.026,0.519l-0.207,2.095c-0.543-0.337-1.993-0.673-2.562-0.673	c-1.239,0-2.323,0.518-2.323,1.604c0,2.688,5.713,1.913,5.713,6.128C96.661,60.055,94.408,61.331,92.059,61.331z M84.611,59.184	h-0.051c-0.647,0.975-2.146,2.147-4.498,2.147c-3.983,0-5.666-3.519-5.666-7.125c0-3.534,1.863-6.635,5.69-6.635	c2.302,0,3.619,0.894,4.37,2.096h0.051V42h2.482v19.012h-2.379V59.184L84.611,59.184z M80.604,49.512	c-2.637,0-3.67,2.483-3.619,4.888c-0.051,2.068,1.033,4.99,3.646,4.99c2.74,0,3.878-2.715,3.878-4.912	C84.509,52.021,83.242,49.512,80.604,49.512z M70.324,54.206c0-3.069-0.674-4.565-2.803-4.694c-2.774,0-4.02,2.218-4.02,5.429v6.072	H61V47.892h2.425v2.058h0.052c0.727-1.485,2.49-2.379,4.332-2.379c3.418,0,4.936,2.096,4.936,5.628v7.813h-2.419L70.324,54.206	L70.324,54.206z M56.94,59.339h-0.052c-0.567,0.792-1.859,1.992-4.082,1.992c-2.844,0-4.837-1.226-4.837-4.106	c0-3.297,3.623-4.322,6.129-4.322c0.956,0,1.627,0,2.584,0.051c0-2.262-0.827-3.44-3.256-3.44c-1.37,0-2.843,0.523-3.827,1.361	l-0.129-2.076c1.217-0.716,2.664-1.226,4.343-1.226c3.77,0,5.288,1.838,5.288,5.422v8.018H56.94V59.339z M56.683,54.75	c-0.517,0-1.034-0.053-1.55-0.053c-1.318,0-4.575,0.207-4.575,2.541c0,1.4,1.344,2.152,2.455,2.152c2.403,0,3.67-1.504,3.67-3.482	V54.75z M47.087,49.683c-2.174,0-3.598,2.06-3.598,5.358v5.973h-2.502V47.89h2.348v2.024h0.051c0.647-1.363,2.044-2.341,3.442-2.341	c0.725,0,1.087,0.077,1.605,0.18v2.161C47.993,49.734,47.501,49.683,47.087,49.683z M18.022,53.068v7.94h-3.018v-7.312	c0-0.393,0.155-0.746,0.414-1l4.367-4.285c0.252-0.26,0.606-0.415,0.998-0.415h7.227v2.996h-7.887	C18.963,50.994,18.022,51.904,18.022,53.068z M9.987,53.068c0-1.164-0.94-2.074-2.1-2.074H0v-2.996h7.227	c0.392,0,0.746,0.155,0.998,0.415l4.367,4.286c0.258,0.253,0.414,0.607,0.414,1v7.311H9.987V53.068z"/>
		
		
	<path fill="#ffffff" 
		d="M212.204,30.967v-2.962h-0.082c-1.058,1.611-3.511,3.558-7.354,3.558c-6.513,0-9.263-5.826-9.263-11.799	c0-5.852,3.046-10.988,9.306-10.988c3.76,0,5.916,1.48,7.143,3.471h0.053V0h3.987v30.967H212.204z M205.622,11.989	c-4.312,0-6.001,4.113-5.916,8.094c-0.085,3.426,1.69,8.265,5.959,8.265c4.479,0,6.34-4.496,6.34-8.136	C212.005,16.145,209.936,11.989,205.622,11.989z M189.262,28.262h-0.085c-0.928,1.313-3.04,3.301-6.674,3.301	c-4.647,0-7.907-2.031-7.907-6.801c0-5.459,5.922-7.158,10.021-7.158c1.562,0,2.659,0,4.223,0.084c0-3.747-1.351-5.698-5.321-5.698	c-2.238,0-4.647,0.868-6.256,2.255l-0.212-3.438c1.989-1.185,4.354-2.03,7.103-2.03c6.162,0,8.645,3.045,8.645,8.979v13.213h-3.533	v-2.707H189.262z M188.839,20.663c-0.844,0-1.688-0.086-2.532-0.086c-2.154,0-7.479,0.343-7.479,4.207	c0,2.317,2.196,3.563,4.014,3.563c3.931,0,5.998-2.49,5.998-5.768V20.663z M170.251,31.563c-4.097,0-6.622-1.945-6.622-6.295v-12.75	h-4.865V9.304h4.865V4.277L167.586,3v6.304h5.712v3.213h-5.712v11.937c0,2.524,1.521,3.894,3.344,3.894	c1.227,0,2.114-0.386,2.707-0.771v3.394C172.747,31.223,171.521,31.563,170.251,31.563z M150.645,31.563	c-2.027,0-4.101-0.213-5.92-1.187l0.211-3.569c1.565,1.027,3.81,1.541,4.948,1.541c1.815,0,4.054-0.771,4.054-3.125	c0-3.982-9.34-3.641-9.34-9.763c0-4.526,3.344-6.684,7.608-6.684c1.858,0,3.381,0.381,4.946,0.858l-0.338,3.47	c-0.889-0.558-3.258-1.115-4.188-1.115c-2.025,0-3.799,0.858-3.799,2.656c0,4.453,9.34,3.169,9.34,10.148	C158.169,29.447,154.486,31.563,150.645,31.563z M138.471,28.005h-0.084c-1.058,1.611-3.508,3.558-7.354,3.558	c-6.513,0-9.265-5.826-9.265-11.799c0-5.852,3.049-10.988,9.305-10.988c3.765,0,5.919,1.48,7.146,3.471h0.085V0h3.955v30.967h-3.787	V28.005L138.471,28.005z M131.919,11.989c-4.312,0-6.001,4.113-5.918,8.094c-0.083,3.426,1.69,8.265,5.961,8.265	c4.479,0,6.341-4.496,6.341-8.136C138.303,16.145,136.23,11.989,131.919,11.989z M115.111,19.764c0-5.083-1.102-7.56-4.579-7.774	c-4.537,0-6.572,3.674-6.572,8.993v9.988h-3.955V9.308h3.828v3.409h0.084c1.188-2.461,4.071-3.941,7.081-3.941	c5.586,0,8.068,3.471,8.068,9.322v12.873h-3.955V19.764L115.111,19.764z M93.231,28.262h-0.084c-0.928,1.313-3.04,3.301-6.673,3.301	c-4.649,0-7.908-2.031-7.908-6.801c0-5.459,5.923-7.158,10.021-7.158c1.563,0,2.661,0,4.225,0.084c0-3.747-1.352-5.698-5.323-5.698	c-2.239,0-4.647,0.868-6.255,2.255l-0.212-3.438c1.989-1.185,4.355-2.03,7.101-2.03c6.163,0,8.646,3.045,8.646,8.979v13.213h-3.535	v-2.707H93.231z M92.811,20.663c-0.846,0-1.689-0.086-2.535-0.086c-2.155,0-7.478,0.343-7.478,4.207	c0,2.317,2.197,3.563,4.014,3.563c3.929,0,5.999-2.49,5.999-5.768V20.663z M76.785,12.272c-3.555,0-5.789,3.41-5.789,8.873v9.826	h-4.018V9.304h3.672v3.352h0.083c1.058-2.257,3.343-3.876,5.628-3.876c1.185,0,1.777,0.128,2.624,0.298v3.578	C78.266,12.358,77.462,12.272,76.785,12.272z M29.984,17.557v13.438h-4.981V18.708c0-0.685,0.271-1.302,0.723-1.742l7.24-7.24	c0.44-0.452,1.058-0.722,1.742-0.722h12.287v4.98H33.556C31.531,13.984,29.984,15.531,29.984,17.557z M17.01,17.557	c0-2.025-1.547-3.572-3.571-3.572H0v-4.98h12.287c0.684,0,1.301,0.271,1.741,0.722l7.241,7.24c0.451,0.441,0.722,1.059,0.722,1.742	v12.285h-4.98V17.557H17.01z"/>
		
</svg>